<svg width="1000" height="1000" viewBox="0 0 1000 1000" fill="none" xmlns="http://www.w3.org/2000/svg">
<g clip-path="url(#clip0_2468_824)">
<path d="M661.34 114.09C684.862 118.702 698.184 128.483 705.982 141.165C713.838 153.943 716.227 169.879 717.388 187.113C717.712 191.917 717.939 196.828 718.17 201.788C718.759 214.486 719.363 227.504 721.627 239.86C724.792 257.128 731.232 273.387 745.546 286.246C766.086 304.698 791.018 308.89 814.426 312.826C816.85 313.233 819.257 313.638 821.641 314.055C847.191 318.529 870.18 324.441 884.447 349.843C898.386 374.662 893.952 396.708 886.288 420.12C885.056 423.884 883.737 427.687 882.401 431.542C875.453 451.582 868.017 473.033 869.654 497.755C871.13 520.052 879.209 539.974 889.685 558.434C897.19 571.658 905.981 584.219 914.483 596.365C917.821 601.135 921.114 605.84 924.267 610.497C935.505 627.091 944.99 643.1 948.879 659.563C952.745 675.932 951.093 692.824 939.864 711.279C920.649 742.86 891.542 748.031 858.583 750.038C854.07 750.312 849.483 750.527 844.842 750.744C815.743 752.104 784.54 753.562 756.264 770.63C731.302 785.697 716.315 805.625 702.015 824.64C700.354 826.848 698.702 829.044 697.045 831.219C681.1 852.148 664.614 871.201 634.571 881.264C597.465 893.693 567.878 884.876 537.443 872.308C532.653 870.33 527.839 868.257 522.97 866.16C496.953 854.956 469.378 843.08 435.668 841.513C406.681 840.167 380.955 849.034 356.953 857.308C351.407 859.22 345.952 861.1 340.57 862.815C311.806 871.982 284.972 876.552 256.072 857.49C237.073 844.959 229.758 828.133 222.903 810.165C222.429 808.921 221.956 807.671 221.482 806.417C215.126 789.601 208.469 771.989 192.278 756.976C172.302 738.453 147.989 734.438 125.061 730.651C123.072 730.323 121.093 729.996 119.128 729.661C94.3865 725.45 71.8301 720.058 57.0717 695.932C46.1973 678.154 44.5824 662.136 48.5804 646.815C52.6037 631.397 62.3404 616.566 74.4349 601.295C79.8733 594.429 85.759 587.508 91.7859 580.421C92.452 579.638 93.1199 578.853 93.7891 578.065C100.505 570.163 107.345 562.049 113.842 553.622C126.834 536.771 138.515 518.59 145.174 498.138C156.438 463.546 156.005 430.808 155.596 399.994C155.496 392.398 155.397 384.919 155.475 377.557C155.87 340.279 160.755 305.764 192.34 273.07C223.664 240.647 265.278 245.709 309.091 256.662C316.611 258.542 324.204 260.598 331.807 262.656C346.212 266.557 360.651 270.467 374.688 273.205C396.178 277.397 417.053 278.924 436.028 273.489C455.052 268.04 472.762 253.993 490.031 236.542C501.427 225.027 512.744 211.904 524.172 198.654C530.054 191.833 535.966 184.979 541.932 178.292C559.555 158.543 577.722 140.174 597.367 127.897C616.974 115.645 637.973 109.508 661.34 114.09Z" fill="black" stroke="white" stroke-width="3.14467"/>
<path d="M122.775 488.343C152.22 397.759 105.387 319.706 172.963 249.638C240.539 179.57 352.375 272.202 431.016 249.638C473.717 237.386 510.709 182.882 551.735 138.793M891.005 488.343C886.938 426.809 936.564 384.955 906.417 331.186C875.476 276 806.413 305.792 759.41 263.493C736.796 243.142 733.146 214.486 731.567 185.767" stroke="white" stroke-width="3.14467"/>
<path d="M539.607 555.783V581.83H498.59V555.783H539.607Z" fill="white" stroke="white" stroke-width="3.14467"/>
<path d="M428.403 604.283C428.994 601.489 431.167 598.61 435.112 595.769C439.765 592.417 446.598 589.334 455.184 586.718C472.336 581.492 496.126 578.236 522.472 578.236C548.818 578.236 572.609 581.492 589.761 586.718C598.346 589.334 605.18 592.417 609.832 595.769C613.777 598.61 615.951 601.489 616.541 604.283H428.403Z" fill="black" stroke="white" stroke-width="3.14467"/>
<path d="M425.113 602.681C450.714 598.538 489.273 593.207 518.094 593.207C546.693 593.207 584.881 598.456 610.483 602.585C627.311 605.299 641.326 616.713 646.412 632.892C651.675 649.634 657.124 671.157 657.124 688.379C657.124 705.546 651.71 726.987 646.462 743.706C641.357 759.973 627.23 771.417 610.302 774.073C584.698 778.089 546.62 783.176 518.094 783.176C489.345 783.176 450.896 778.009 425.292 773.979C408.681 771.365 394.746 760.278 389.481 744.402C383.913 727.609 378.084 705.831 378.084 688.379C378.084 670.872 383.949 649.013 389.533 632.2C394.777 616.411 408.603 605.353 425.113 602.681Z" fill="white" stroke="white" stroke-width="3.14467"/>
<path d="M523.043 665.71L527.563 670.601C528.505 671.62 529.638 672.443 530.898 673.023L536.946 675.811C540.872 677.62 542.422 682.391 540.31 686.162L537.054 691.972C536.376 693.182 535.944 694.514 535.781 695.892L534.999 702.506C534.492 706.798 530.433 709.747 526.194 708.903L519.662 707.603C518.302 707.332 516.901 707.332 515.541 707.603L509.009 708.903C504.77 709.747 500.711 706.798 500.204 702.506L499.422 695.892C499.259 694.514 498.826 693.182 498.148 691.972L494.893 686.162C492.781 682.391 494.331 677.62 498.257 675.811L504.305 673.023C505.565 672.443 506.698 671.62 507.64 670.601L512.16 665.71C515.093 662.535 520.11 662.535 523.043 665.71Z" fill="black" stroke="white" stroke-width="3.14467"/>
<circle cx="39.2963" cy="520.152" r="37.724" stroke="white" stroke-width="3.14467"/>
<circle cx="420.287" cy="158.624" r="37.724" stroke="white" stroke-width="3.14467"/>
<circle cx="960.705" cy="449.792" r="37.724" stroke="white" stroke-width="3.14467"/>
<path d="M684.445 434.173C682.955 445.455 677.446 456.777 669.405 465.265C661.79 473.302 651.996 478.71 641.3 479.258L651.493 400.264C659.617 395.761 668.837 395.401 675.464 400.121C682.24 404.949 686.907 415.53 684.445 434.173Z" fill="white" stroke="black" stroke-width="3.14522"/>
<path d="M350.758 434.173C352.248 445.455 357.757 456.777 365.798 465.265C373.413 473.302 383.207 478.71 393.903 479.258L383.71 400.264C375.586 395.761 366.366 395.401 359.739 400.121C352.963 404.949 348.296 415.53 350.758 434.173Z" fill="white" stroke="black" stroke-width="3.14522"/>
<path d="M657.124 434.449C657.124 502.442 594.843 557.876 517.604 557.876C440.365 557.876 378.084 502.442 378.084 434.449V434.292V434.136V433.98V433.824V433.669V433.514V433.359V433.205V433.051V432.897V432.744V432.59V432.438V432.285V432.133V431.981V431.829V431.678V431.527V431.376V431.226V431.076V430.926V430.777V430.628V430.479V430.331V430.183V430.035V429.887V429.74V429.593V429.447V429.3V429.154V429.009V428.863V428.718V428.574V428.429V428.285V428.141V427.998V427.855V427.712V427.569V427.427V427.285V427.144V427.003V426.862V426.721V426.581V426.441V426.301V426.162V426.022V425.884V425.745V425.607V425.469V425.332V425.195V425.058V424.921V424.785V424.649V424.513V424.378V424.243V424.108V423.974V423.84V423.706V423.572V423.439V423.306V423.174V423.042V422.91V422.778V422.647V422.516V422.385V422.255V422.125V421.995V421.866V421.736V421.608V421.479V421.351V421.223V421.096V420.968V420.841V420.715V420.588V420.462V420.337V420.211V420.086V419.962V419.837V419.713V419.589V419.466V419.342V419.22V419.097V418.975V418.853V418.731V418.61V418.489V418.368V418.248V418.127V418.008V417.888V417.769V417.65V417.532V417.413V417.295V417.178V417.061V416.944V416.827V416.71V416.594V416.479V416.363V416.248V416.133V416.019V415.904V415.791V415.677V415.564V415.451V415.338V415.226V415.114V415.002V414.89V414.779V414.669V414.558V414.448V414.338V414.228V414.119V414.01V413.902V413.793V413.685V413.578V413.47V413.363V413.256V413.15V413.044V412.938V412.832V412.727V412.622V412.517V412.413V412.309V412.205V412.102V411.999V411.896V411.794V411.691V411.59V411.488V411.387V411.286V411.185V411.085V410.985V410.885V410.786V410.687V410.588V410.49V410.391V410.294V410.196V410.099V410.002V409.905V409.809V409.713V409.617V409.522V409.427V409.332V409.238V409.144V409.05V408.956V408.863V408.77V408.677V408.585V408.493V408.401V408.31V408.219V408.128V408.038V407.948V407.858V407.768V407.679V407.59V407.502V407.413V407.325V407.238V407.15V407.063V406.976V406.89V406.804V406.718V406.632V406.547V406.462V406.378V406.293V406.209V406.126V406.042V405.959V405.876V405.794V405.712V405.63V405.548V405.467V405.386V405.305V405.225V405.145V405.065V404.986V404.907V404.828V404.75V404.671V404.594V404.516V404.439V404.362V404.285V404.209V404.133V404.057V403.982V403.906V403.832V403.757V403.683V403.609V403.535V403.462V403.389V403.317V403.244V403.172V403.1V403.029V402.958V402.887V402.816V402.746V402.676V402.607V402.537V402.468V402.4V402.331V402.263V402.195V402.128V402.061V401.994V401.927V401.861V401.795V401.729V401.664V401.599V401.534V401.47V401.406V401.342V401.278V401.215V401.152V401.09V401.027V400.965V400.904V400.842V400.781V400.72V400.66V400.6V400.54V400.48V400.421V400.362V400.304V400.245V400.187V400.129V400.072V400.015V399.958V399.902V399.845V399.789V399.734V399.679V399.624V399.569V399.514V399.46V399.407V399.353V399.3V399.247V399.195V399.142V399.09V399.039V398.987V398.936V398.886V398.835V398.785V398.735V398.686V398.636V398.588V398.539V398.491V398.443V398.395V398.347V398.3V398.254V398.207V398.161V398.115V398.069V398.024V397.979V397.935V397.89V397.846V397.802V397.759V397.716V397.673V397.63V397.588V397.546V397.504V397.463V397.422V397.381V397.341V397.301V397.261V397.221V397.182V397.143V397.105V397.066V397.028V396.991V396.953V396.916V396.879V396.843V396.807V396.771V396.735V396.7V396.665V396.63V396.596V396.562V396.528V396.494V396.461V396.428V396.396V396.363V396.331V396.3V396.298C378.484 396.315 378.953 396.333 379.485 396.352C381.451 396.421 384.292 396.493 387.805 396.509C394.828 396.541 404.546 396.346 415.323 395.437C436.791 393.627 462.785 388.963 479.937 377.368C497.097 365.768 510.532 343.15 519.636 323.689C524.208 313.918 527.723 304.864 530.095 298.253C531.081 295.505 531.87 293.178 532.457 291.394C533.062 292.709 533.821 294.333 534.72 296.209C537.256 301.5 540.91 308.802 545.382 316.851C554.301 332.903 566.567 352.089 579.794 364.13C592.753 375.926 612.495 383.928 628.828 388.974C637.024 391.506 644.419 393.311 649.766 394.483C652.44 395.069 654.604 395.497 656.102 395.779C656.488 395.852 656.829 395.915 657.124 395.969V395.971V396V396.028V396.057V396.087V396.116V396.146V396.176V396.207V396.237V396.268V396.3V396.331V396.363V396.396V396.428V396.461V396.494V396.528V396.562V396.596V396.63V396.665V396.7V396.735V396.771V396.807V396.843V396.879V396.916V396.953V396.991V397.028V397.066V397.105V397.143V397.182V397.221V397.261V397.301V397.341V397.381V397.422V397.463V397.504V397.546V397.588V397.63V397.673V397.716V397.759V397.802V397.846V397.89V397.935V397.979V398.024V398.069V398.115V398.161V398.207V398.254V398.3V398.347V398.395V398.443V398.491V398.539V398.588V398.636V398.686V398.735V398.785V398.835V398.886V398.936V398.987V399.039V399.09V399.142V399.195V399.247V399.3V399.353V399.407V399.46V399.514V399.569V399.624V399.679V399.734V399.789V399.845V399.902V399.958V400.015V400.072V400.129V400.187V400.245V400.304V400.362V400.421V400.48V400.54V400.6V400.66V400.72V400.781V400.842V400.904V400.965V401.027V401.09V401.152V401.215V401.278V401.342V401.406V401.47V401.534V401.599V401.664V401.729V401.795V401.861V401.927V401.994V402.061V402.128V402.195V402.263V402.331V402.4V402.468V402.537V402.607V402.676V402.746V402.816V402.887V402.958V403.029V403.1V403.172V403.244V403.317V403.389V403.462V403.535V403.609V403.683V403.757V403.832V403.906V403.982V404.057V404.133V404.209V404.285V404.362V404.439V404.516V404.594V404.671V404.75V404.828V404.907V404.986V405.065V405.145V405.225V405.305V405.386V405.467V405.548V405.63V405.712V405.794V405.876V405.959V406.042V406.126V406.209V406.293V406.378V406.462V406.547V406.632V406.718V406.804V406.89V406.976V407.063V407.15V407.238V407.325V407.413V407.502V407.59V407.679V407.768V407.858V407.948V408.038V408.128V408.219V408.31V408.402V408.493V408.585V408.677V408.77V408.863V408.956V409.05V409.144V409.238V409.332V409.427V409.522V409.617V409.713V409.809V409.905V410.002V410.099V410.196V410.294V410.391V410.49V410.588V410.687V410.786V410.885V410.985V411.085V411.185V411.286V411.387V411.488V411.59V411.691V411.794V411.896V411.999V412.102V412.205V412.309V412.413V412.517V412.622V412.727V412.832V412.938V413.044V413.15V413.256V413.363V413.47V413.578V413.685V413.793V413.902V414.01V414.119V414.228V414.338V414.448V414.558V414.669V414.779V414.891V415.002V415.114V415.226V415.338V415.451V415.564V415.677V415.791V415.904V416.019V416.133V416.248V416.363V416.479V416.594V416.71V416.827V416.944V417.061V417.178V417.295V417.413V417.532V417.65V417.769V417.888V418.008V418.127V418.248V418.368V418.489V418.61V418.731V418.853V418.975V419.097V419.22V419.342V419.466V419.589V419.713V419.837V419.962V420.086V420.211V420.337V420.462V420.588V420.715V420.841V420.968V421.096V421.223V421.351V421.479V421.608V421.736V421.866V421.995V422.125V422.255V422.385V422.516V422.647V422.778V422.91V423.042V423.174V423.306V423.439V423.572V423.706V423.84V423.974V424.108V424.243V424.378V424.513V424.649V424.785V424.921V425.058V425.195V425.332V425.469V425.607V425.745V425.884V426.022V426.162V426.301V426.441V426.581V426.721V426.862V427.003V427.144V427.285V427.427V427.569V427.712V427.855V427.998V428.141V428.285V428.429V428.574V428.718V428.863V429.009V429.154V429.3V429.447V429.593V429.74V429.887V430.035V430.183V430.331V430.479V430.628V430.777V430.926V431.076V431.226V431.376V431.527V431.678V431.829V431.981V432.133V432.285V432.438V432.59V432.744V432.897V433.051V433.205V433.359V433.514V433.669V433.824V433.98V434.136V434.292V434.449Z" fill="white" stroke="black" stroke-width="3.14467"/>
<circle cx="449.328" cy="418.955" r="4.71701" fill="black"/>
<circle cx="560.1" cy="418.955" r="4.71701" fill="black"/>
<path d="M475.316 480.482C475.316 480.482 484.742 498.072 517.607 498.072C550.471 498.072 559.897 480.482 559.897 480.482" stroke="black" stroke-width="3.14467" stroke-linecap="round"/>
<path d="M512.745 407.504C512.745 407.504 512.18 417.003 508.628 426.216C505.076 435.43 500.395 441.186 500.395 441.186" stroke="black" stroke-width="3.14467" stroke-linecap="round"/>
<path d="M673.956 482.44L672.446 482.876L672.446 482.876L673.956 482.44ZM658.704 469.812C659.389 469.278 659.511 468.29 658.977 467.605C658.443 466.921 657.455 466.798 656.77 467.332L658.704 469.812ZM675.372 505.736C675.372 516.305 673.722 525.803 671.108 532.602C669.799 536.006 668.279 538.653 666.671 540.422C665.063 542.19 663.492 542.956 662.028 542.956V546.1C664.683 546.1 667.036 544.695 668.998 542.537C670.959 540.38 672.653 537.346 674.043 533.73C676.828 526.488 678.517 516.59 678.517 505.736H675.372ZM662.028 542.956C660.564 542.956 658.993 542.19 657.385 540.422C655.777 538.653 654.257 536.006 652.948 532.602C650.334 525.803 648.684 516.305 648.684 505.736H645.539C645.539 516.59 647.228 526.488 650.013 533.73C651.403 537.346 653.097 540.38 655.058 542.537C657.02 544.695 659.373 546.1 662.028 546.1V542.956ZM672.446 482.876C674.275 489.2 675.372 497.117 675.372 505.736H678.517C678.517 496.869 677.39 488.653 675.467 482.003L672.446 482.876ZM666.185 470.405C669.075 473.567 670.596 476.48 672.446 482.876L675.467 482.003C673.538 475.335 671.835 471.925 668.505 468.284L666.185 470.405ZM648.684 505.736C648.684 497.087 649.789 489.145 651.629 482.81C653.49 476.404 656.03 471.897 658.704 469.812L656.77 467.332C653.298 470.04 650.524 475.343 648.609 481.933C646.674 488.595 645.539 496.838 645.539 505.736H648.684Z" fill="white"/>
<path d="M361.253 482.44L362.763 482.876L362.763 482.876L361.253 482.44ZM376.505 469.812C375.82 469.278 375.698 468.29 376.232 467.605C376.766 466.921 377.754 466.798 378.439 467.332L376.505 469.812ZM359.837 505.736C359.837 516.305 361.487 525.803 364.101 532.602C365.41 536.006 366.93 538.653 368.538 540.422C370.146 542.19 371.717 542.956 373.181 542.956V546.1C370.526 546.1 368.173 544.695 366.211 542.537C364.25 540.38 362.556 537.346 361.166 533.73C358.381 526.488 356.692 516.59 356.692 505.736H359.837ZM373.181 542.956C374.645 542.956 376.216 542.19 377.824 540.422C379.432 538.653 380.952 536.006 382.261 532.602C384.875 525.803 386.525 516.305 386.525 505.736H389.67C389.67 516.59 387.981 526.488 385.196 533.73C383.806 537.346 382.112 540.38 380.151 542.537C378.189 544.695 375.836 546.1 373.181 546.1V542.956ZM362.763 482.876C360.934 489.2 359.837 497.117 359.837 505.736H356.692C356.692 496.869 357.819 488.653 359.742 482.003L362.763 482.876ZM369.024 470.405C366.134 473.567 364.613 476.48 362.763 482.876L359.742 482.003C361.671 475.335 363.374 471.925 366.704 468.284L369.024 470.405ZM386.525 505.736C386.525 497.087 385.42 489.145 383.58 482.81C381.719 476.404 379.179 471.897 376.505 469.812L378.439 467.332C381.911 470.04 384.685 475.343 386.6 481.933C388.535 488.595 389.67 496.838 389.67 505.736H386.525Z" fill="white"/>
</g>
<defs>
<clipPath id="clip0_2468_824">
<rect width="1000" height="1000" fill="white"/>
</clipPath>
</defs>
</svg>
